<svg width="803" height="143" viewBox="0 0 803 143" fill="none" xmlns="http://www.w3.org/2000/svg">
<path d="M48.8186 32.3124H77.7609C80.2443 32.3124 82.5016 33.3278 84.1369 34.9631C85.7725 36.5984 86.7876 38.8556 86.7876 41.339V57.1261C86.7876 59.6098 85.7725 61.867 84.1369 63.5023C82.5016 65.1376 80.2443 66.1527 77.7609 66.1527H48.8186C46.3349 66.1527 44.078 65.1376 42.4427 63.5023C40.8071 61.867 39.792 59.6098 39.792 57.1261V41.339C39.792 38.8556 40.8071 36.5984 42.4427 34.9631C44.078 33.3278 46.3349 32.3124 48.8186 32.3124ZM77.7609 34.8996H48.8186C47.049 34.8996 45.4392 35.6244 44.2716 36.7923C43.104 37.9598 42.3789 39.5696 42.3789 41.339V57.1261C42.3789 58.8957 43.104 60.5055 44.2716 61.6731C45.4392 62.841 47.049 63.5658 48.8186 63.5658H77.7609C79.5303 63.5658 81.1404 62.841 82.3079 61.6731C83.4755 60.5055 84.2007 58.8957 84.2007 57.1261V41.339C84.2007 39.5696 83.4755 37.9598 82.3079 36.7923C81.1404 35.6244 79.5303 34.8996 77.7609 34.8996Z" fill="#228BE6"/>
<path d="M85.6563 40.7285C87.7432 40.8283 89.6124 41.813 90.9614 43.3486C92.3047 44.8776 93.1321 46.9542 93.1321 49.2333C93.1321 51.5123 92.305 53.5887 90.9614 55.1177C89.5857 56.6836 87.6692 57.6769 85.5328 57.7429C84.8187 57.7647 84.2226 57.208 84.2008 56.494L84.2002 42.0118C84.2002 41.2974 84.7793 40.7183 85.4936 40.7183C85.5486 40.7183 85.6031 40.7217 85.6563 40.7285ZM89.0213 45.0465C88.4082 44.3489 87.6423 43.8225 86.7871 43.5373V54.9292C87.6423 54.644 88.4082 54.1173 89.0213 53.42C89.9644 52.3468 90.5452 50.8705 90.5452 49.2333C90.5452 47.596 89.9644 46.1197 89.0213 45.0465Z" fill="#228BE6"/>
<path d="M40.9224 57.7378C38.8355 57.638 36.9663 56.653 35.6171 55.1174C34.2737 53.5884 33.4463 51.5121 33.4463 49.233C33.4463 46.9539 34.2737 44.8773 35.6171 43.3483C36.993 41.7827 38.9095 40.7894 41.0457 40.7231C41.7595 40.7013 42.3561 41.258 42.378 41.972L42.3785 56.4542C42.3785 57.1686 41.7994 57.748 41.0851 57.748C41.0301 57.748 40.9757 57.7443 40.9224 57.7378ZM37.5574 53.4198C38.1702 54.1174 38.9364 54.6438 39.7916 54.9289V43.5371C38.9364 43.8223 38.1702 44.3487 37.5574 45.0463C36.6143 46.1195 36.0335 47.5957 36.0335 49.233C36.0335 50.8703 36.6143 52.3463 37.5574 53.4198Z" fill="#228BE6"/>
<path d="M50.6916 19.6262C50.2004 19.11 49.3837 19.0896 48.8676 19.5806C48.3514 20.0718 48.3312 20.8885 48.8222 21.4046C50.3677 23.0212 52.6235 25.5183 54.6295 28.2679C56.01 30.1597 57.2797 32.1791 58.1261 34.1217C58.4107 34.7745 59.1706 35.073 59.8237 34.7887C60.4766 34.5041 60.775 33.7439 60.4904 33.091C59.5666 30.9702 58.1958 28.7869 56.7113 26.7522C54.6018 23.8606 52.2771 21.2845 50.6916 19.6262Z" fill="#228BE6"/>
<path d="M46.2845 10C48.0956 10 49.7351 10.7342 50.922 11.921C52.1086 13.1079 52.8427 14.7475 52.8427 16.5582C52.8427 18.369 52.1086 20.0086 50.922 21.1954C49.7351 22.3823 48.0956 23.1165 46.2845 23.1165C44.474 23.1165 42.8342 22.382 41.6473 21.1954C40.4604 20.0086 39.7266 18.369 39.7266 16.5582C39.7266 14.7475 40.4604 13.1079 41.6473 11.921C42.8342 10.7342 44.4737 10 46.2845 10ZM49.0928 13.7502C48.3742 13.0317 47.3812 12.5872 46.2845 12.5872C45.1878 12.5872 44.1951 13.0317 43.4765 13.7502C42.7579 14.4685 42.3135 15.4615 42.3135 16.5582C42.3135 17.655 42.7579 18.6479 43.4765 19.3665C44.1951 20.0848 45.1878 20.5293 46.2845 20.5293C47.3812 20.5293 48.3742 20.0848 49.0928 19.3665C49.8114 18.6479 50.2558 17.655 50.2558 16.5582C50.2558 15.4615 49.8114 14.4685 49.0928 13.7502Z" fill="#228BE6"/>
<path d="M73.0834 26.3661C73.5743 25.8499 73.5539 25.0332 73.0377 24.5423C72.5216 24.051 71.7049 24.0714 71.2139 24.5876C70.2096 25.6382 68.8212 27.1652 67.4484 28.9187C66.4531 30.1892 65.4738 31.5697 64.6662 32.9595C64.309 33.5763 64.5193 34.3657 65.1359 34.7229C65.7527 35.0801 66.5422 34.8697 66.8993 34.2529C67.6488 32.9632 68.557 31.683 69.4794 30.5052C70.7729 28.8535 72.1097 27.3843 73.0834 26.3661Z" fill="#228BE6"/>
<path d="M74.8352 19.6381C74.0678 19.6381 73.373 19.949 72.8705 20.4516C72.3679 20.9542 72.0566 21.6493 72.0566 22.4163C72.0566 23.1837 72.3679 23.8784 72.8705 24.3813C73.373 24.8839 74.0678 25.1948 74.8352 25.1948C75.6025 25.1948 76.2973 24.8839 76.7998 24.3813C77.3024 23.8784 77.6137 23.1837 77.6137 22.4163C77.6137 21.649 77.3027 20.9542 76.7998 20.4516C76.2973 19.949 75.6025 19.6381 74.8352 19.6381ZM71.0413 18.6227C72.0124 17.6516 73.3538 17.0509 74.8352 17.0509C76.3168 17.0509 77.6582 17.6516 78.629 18.6227C79.5999 19.5936 80.2006 20.9349 80.2006 22.4163C80.2006 23.8977 79.5999 25.2394 78.629 26.2102C77.6582 27.1811 76.3168 27.782 74.8352 27.782C73.3538 27.782 72.0124 27.1814 71.0413 26.2102C70.0704 25.2393 69.4697 23.8977 69.4697 22.4163C69.4697 20.9349 70.0704 19.5936 71.0413 18.6227Z" fill="#228BE6"/>
<path d="M53.8772 43.5984C53.8772 42.8841 53.2978 42.3049 52.5838 42.3049C51.8695 42.3049 51.29 42.8841 51.29 43.5984V46.7706C51.29 47.485 51.8695 48.0641 52.5838 48.0641C53.2978 48.0641 53.8772 47.485 53.8772 46.7706V43.5984Z" fill="#228BE6"/>
<path d="M75.2891 43.5984C75.2891 42.8841 74.7099 42.3049 73.9956 42.3049C73.2813 42.3049 72.7021 42.8841 72.7021 43.5984V46.7706C72.7021 47.485 73.2813 48.0641 73.9956 48.0641C74.7099 48.0641 75.2891 47.485 75.2891 46.7706V43.5984Z" fill="#228BE6"/>
<path d="M64.8756 57.1049C65.5899 57.1049 66.169 56.5255 66.169 55.8112C66.169 55.0971 65.5899 54.5177 64.8756 54.5177H61.7036C60.9893 54.5177 60.4102 55.0971 60.4102 55.8112C60.4102 56.5255 60.9893 57.1049 61.7036 57.1049H64.8756Z" fill="#228BE6"/>
<path d="M46.441 68.3369H80.1381C81.5606 68.3369 82.8529 68.918 83.7889 69.8537C84.7246 70.7897 85.3057 72.082 85.3057 73.5045V102.866C85.3057 104.288 84.7246 105.58 83.7889 106.516C82.8529 107.452 81.5606 108.033 80.1381 108.033H46.441C45.0186 108.033 43.7263 107.452 42.7903 106.517C41.8543 105.58 41.2734 104.288 41.2734 102.866V73.5045C41.2734 72.0821 41.8543 70.7897 42.7903 69.8537C43.7263 68.9177 45.0186 68.3369 46.441 68.3369ZM80.1381 70.9238H46.441C45.7326 70.9238 45.0874 71.2146 44.6194 71.6829C44.1512 72.1509 43.8603 72.7961 43.8603 73.5045V102.866C43.8603 103.574 44.1512 104.219 44.6194 104.687C45.0874 105.156 45.7326 105.446 46.441 105.446H80.1381C80.8465 105.446 81.4914 105.156 81.9597 104.687C82.428 104.219 82.7188 103.574 82.7188 102.866V73.5045C82.7188 72.7961 82.428 72.1512 81.9597 71.6829C81.4914 71.2146 80.8465 70.9238 80.1381 70.9238Z" fill="#228BE6"/>
<path d="M94.6077 79.4544C95.322 79.4544 95.9012 78.8753 95.9012 78.161C95.9012 77.4466 95.3221 76.8675 94.6077 76.8675H84.0119C83.2975 76.8675 82.7184 77.4466 82.7184 78.161C82.7184 78.8753 83.2975 79.4544 84.0119 79.4544H94.6077ZM84.0076 72.0319C83.2933 72.0319 82.7139 72.6113 82.7139 73.3256C82.7139 74.0399 83.2933 74.619 84.0076 74.619H94.7109C95.4252 74.619 96.0046 74.0399 96.0046 73.3256C96.0046 72.6113 95.4252 72.0319 94.7109 72.0319H84.0076Z" fill="#228BE6"/>
<path d="M94.1196 93.9041C94.4935 94.5096 95.2875 94.6976 95.893 94.3234C96.4985 93.9495 96.6864 93.1555 96.3125 92.55C95.6937 91.5483 95.8734 82.0976 95.969 77.0686C95.9945 75.7275 96.0149 74.6608 96.0149 74.3564C96.0149 73.7977 96.2445 73.2886 96.6144 72.9187C96.984 72.5487 97.4931 72.3191 98.0521 72.3191C98.6108 72.3191 99.1202 72.5487 99.4899 72.9187C99.8598 73.2886 100.089 73.7977 100.089 74.3564C100.089 74.6605 100.11 75.7272 100.135 77.068C100.231 82.097 100.41 91.5485 99.7917 92.55C99.4179 93.1555 99.6058 93.9495 100.211 94.3234C100.816 94.6976 101.611 94.5096 101.985 93.9042C103.001 92.2578 102.813 82.3167 102.712 77.0278C102.692 75.9829 102.676 75.1487 102.676 74.3564C102.676 73.0836 102.156 71.9271 101.319 71.0895C100.481 70.2521 99.3252 69.7322 98.0521 69.7322C96.7791 69.7322 95.6226 70.2521 94.7852 71.0895C93.9479 71.9271 93.428 73.0836 93.428 74.3564C93.428 75.149 93.4121 75.9832 93.3923 77.0281C93.2916 82.3172 93.1026 92.2575 94.1196 93.9041Z" fill="#228BE6"/>
<path d="M98.0516 91.3561C100.375 91.3561 102.474 92.355 104.006 93.8871C105.593 95.474 106.578 97.6467 106.578 99.8833C106.578 101.913 106.36 103.66 105.677 105.064C104.922 106.615 103.672 107.687 101.66 108.17C100.966 108.337 100.269 107.914 100.102 107.219C100.076 107.109 100.064 107 100.067 106.892V102.847H96.0361V106.917C96.0361 107.632 95.457 108.211 94.7427 108.211C94.5919 108.211 94.4468 108.185 94.3121 108.137C92.3769 107.64 91.164 106.582 90.4261 105.064C89.7427 103.66 89.5244 101.913 89.5244 99.8833C89.5244 97.6467 90.51 95.474 92.0968 93.8871C93.629 92.355 95.7283 91.3561 98.0516 91.3561ZM102.177 95.7163C101.104 94.6431 99.6478 93.943 98.0516 93.943C96.4551 93.943 94.999 94.6431 93.9258 95.7163C92.8066 96.8355 92.1113 98.3463 92.1113 99.8833C92.1113 101.558 92.2661 102.947 92.7505 103.943C92.9257 104.303 93.1547 104.617 93.4493 104.881V101.553C93.4493 100.839 94.0284 100.26 94.7427 100.26H101.36C102.075 100.26 102.654 100.839 102.654 101.553V104.881C102.948 104.617 103.177 104.303 103.353 103.943C103.837 102.947 103.992 101.558 103.992 99.8833C103.992 98.3463 103.296 96.8355 102.177 95.7163Z" fill="#228BE6"/>
<path d="M31.9709 76.8675C31.2565 76.8675 30.6774 77.4466 30.6774 78.1609C30.6774 78.8753 31.2565 79.4544 31.9709 79.4544H42.5667C43.2811 79.4544 43.8602 78.8753 43.8602 78.1609C43.8602 77.4466 43.2811 76.8675 42.5667 76.8675H31.9709ZM42.571 74.619C43.2853 74.619 43.8647 74.0399 43.8647 73.3256C43.8647 72.6113 43.2853 72.0319 42.571 72.0319H31.8677C31.1533 72.0319 30.5742 72.6113 30.5742 73.3256C30.5742 74.0399 31.1533 74.619 31.8677 74.619H42.571Z" fill="#228BE6"/>
<path d="M30.2671 92.5498C29.8932 93.1553 30.0812 93.9493 30.6867 94.3232C31.2922 94.6973 32.0861 94.5094 32.46 93.9039C33.4768 92.2573 33.288 82.3167 33.1877 77.0275C33.1678 75.9827 33.152 75.1484 33.152 74.3562C33.152 73.0834 32.6321 71.9269 31.7945 71.0892C30.9571 70.2519 29.8006 69.732 28.5278 69.732C27.2548 69.732 26.0982 70.2519 25.2606 71.0892C24.4232 71.9269 23.9034 73.0834 23.9034 74.3562C23.9034 75.1484 23.8875 75.9827 23.8677 77.0275C23.7673 82.3167 23.5782 92.2576 24.595 93.9039C24.9689 94.5094 25.7632 94.6973 26.3687 94.3232C26.9739 93.9493 27.1618 93.1553 26.7879 92.5498C26.1694 91.5483 26.3488 82.097 26.4446 77.0681C26.4701 75.7273 26.4903 74.6603 26.4903 74.3562C26.4903 73.7974 26.7199 73.2883 27.0898 72.9184C27.4597 72.5485 27.9688 72.3189 28.5275 72.3189C29.0862 72.3189 29.5956 72.5485 29.9655 72.9184C30.3352 73.2883 30.5648 73.7974 30.5648 74.3562C30.5648 74.6606 30.5852 75.7273 30.6107 77.0681C30.7062 82.0967 30.8859 91.548 30.2671 92.5498Z" fill="#228BE6"/>
<path d="M28.5272 93.943C26.9307 93.943 25.4746 94.6431 24.4014 95.7163C23.2822 96.8354 22.5869 98.3463 22.5869 99.8833C22.5869 101.558 22.7417 102.947 23.2258 103.943C23.401 104.303 23.63 104.617 23.9248 104.881V101.553C23.9248 100.839 24.504 100.26 25.2183 100.26H31.8358C32.5501 100.26 33.1292 100.839 33.1292 101.553V104.881C33.4237 104.617 33.6528 104.303 33.828 103.943C34.3124 102.947 34.4672 101.558 34.4672 99.8833C34.4672 98.3463 33.7718 96.8354 32.6527 95.7163C31.5795 94.6431 30.1234 93.943 28.5272 93.943ZM22.5721 93.8871C24.1043 92.355 26.2039 91.3561 28.5272 91.3561C30.8502 91.3561 32.9498 92.355 34.4816 93.8871C36.0685 95.474 37.0541 97.6467 37.0541 99.8833C37.0541 101.913 36.8358 103.66 36.1524 105.064C35.4145 106.582 34.2016 107.64 32.2664 108.137C32.1317 108.185 31.9866 108.211 31.8358 108.211C31.1214 108.211 30.5423 107.632 30.5423 106.917V102.847H26.5117V106.892C26.514 107 26.5024 107.109 26.476 107.219C26.3096 107.914 25.6115 108.342 24.917 108.175C22.9055 107.692 21.656 106.615 20.9017 105.064C20.2183 103.66 20 101.913 20 99.8833C20 97.6467 20.9856 95.474 22.5721 93.8871Z" fill="#228BE6"/>
<path d="M70.6641 123.472C70.6641 124.187 71.2432 124.766 71.9575 124.766C72.6718 124.766 73.251 124.187 73.251 123.472V108.536H78.1875V123.472C78.1875 124.187 78.7666 124.766 79.481 124.766C80.1953 124.766 80.7747 124.187 80.7747 123.472V107.243C80.7747 106.528 80.1953 105.949 79.481 105.949H71.9575C71.2432 105.949 70.6641 106.528 70.6641 107.243V123.472Z" fill="#228BE6"/>
<path d="M67.604 122.179H83.8332C84.5476 122.179 85.1267 122.758 85.1267 123.472V131.587C85.1267 132.301 84.5476 132.88 83.8332 132.88H67.604C66.8897 132.88 66.3105 132.301 66.3105 131.587V123.472C66.3105 122.758 66.8897 122.179 67.604 122.179ZM82.5397 124.765H68.8975V130.293H82.5397V124.765Z" fill="#228BE6"/>
<path d="M45.8047 123.472C45.8047 124.187 46.3841 124.766 47.0984 124.766C47.8128 124.766 48.3919 124.187 48.3919 123.472V108.536H53.3284V123.472C53.3284 124.187 53.9075 124.766 54.6219 124.766C55.3362 124.766 55.9153 124.187 55.9153 123.472V107.243C55.9153 106.528 55.3362 105.949 54.6219 105.949H47.0984C46.3841 105.949 45.8047 106.528 45.8047 107.243L45.8047 123.472Z" fill="#228BE6"/>
<path d="M42.7449 122.179H58.9739C59.6882 122.179 60.2676 122.758 60.2676 123.472V131.587C60.2676 132.301 59.6882 132.88 58.9739 132.88H42.7449C42.0306 132.88 41.4512 132.301 41.4512 131.587V123.472C41.4512 122.758 42.0306 122.179 42.7449 122.179ZM57.6804 124.765H44.0384V130.293H57.6804V124.765Z" fill="#228BE6"/>
<path d="M150.958 53.2876C154.033 53.2876 156.699 53.8879 158.958 55.0884C161.264 56.241 163.042 58.0178 164.291 60.4189C165.588 62.772 166.237 65.7014 166.237 69.2071V91.1774H162.633V69.4952C162.633 65.2692 161.552 62.0517 159.39 59.8427C157.276 57.6336 154.297 56.5291 150.453 56.5291C147.522 56.5291 144.976 57.1294 142.813 58.33C140.651 59.5305 138.994 61.2113 137.84 63.3723C136.735 65.5333 136.183 68.1266 136.183 71.152V91.1774H132.579V37.7283H136.183V64.0206L135.534 62.8681C136.687 59.8907 138.585 57.5616 141.228 55.8808C143.871 54.152 147.114 53.2876 150.958 53.2876Z" fill="#228BE6"/>
<path d="M204.785 91.1774V82.6054L204.641 81.3088V67.1901C204.641 63.6845 203.68 61.0192 201.758 59.1944C199.884 57.3695 197.122 56.4571 193.47 56.4571C190.875 56.4571 188.449 56.9133 186.191 57.8257C183.98 58.6901 182.082 59.8187 180.497 61.2113L178.695 58.6181C180.569 56.9373 182.827 55.6407 185.47 54.7283C188.112 53.7678 190.875 53.2876 193.758 53.2876C198.419 53.2876 201.999 54.4641 204.497 56.8172C206.996 59.1704 208.245 62.676 208.245 67.3342V91.1774H204.785ZM191.236 91.4656C188.449 91.4656 186.022 91.0333 183.956 90.1689C181.938 89.2565 180.377 87.9839 179.272 86.3511C178.214 84.7184 177.686 82.8455 177.686 80.7325C177.686 78.8116 178.118 77.0828 178.983 75.5461C179.896 73.9613 181.386 72.6887 183.452 71.7283C185.518 70.7198 188.281 70.2155 191.74 70.2155H205.578V73.0249H191.812C187.92 73.0249 185.182 73.7452 183.596 75.1859C182.058 76.6266 181.29 78.4274 181.29 80.5884C181.29 82.9896 182.203 84.9105 184.028 86.3511C185.854 87.7918 188.425 88.5122 191.74 88.5122C194.911 88.5122 197.578 87.7918 199.74 86.3511C201.95 84.9105 203.584 82.8215 204.641 80.0842L205.65 82.5333C204.641 85.2706 202.911 87.4557 200.461 89.0884C198.059 90.6732 194.983 91.4656 191.236 91.4656Z" fill="#228BE6"/>
<path d="M241.471 53.2876C244.546 53.2876 247.213 53.8879 249.471 55.0884C251.777 56.241 253.555 58.0178 254.804 60.4189C256.102 62.772 256.75 65.7014 256.75 69.2071V91.1774H253.147V69.4952C253.147 65.2692 252.066 62.0517 249.903 59.8427C247.789 57.6336 244.81 56.5291 240.966 56.5291C238.035 56.5291 235.489 57.1294 233.327 58.33C231.165 59.5305 229.507 61.2113 228.354 63.3723C227.249 65.5333 226.696 68.1266 226.696 71.152V91.1774H223.092V53.5757H226.552V64.0206L226.047 62.8681C227.201 59.8907 229.098 57.5616 231.741 55.8808C234.384 54.152 237.627 53.2876 241.471 53.2876Z" fill="#228BE6"/>
<path d="M286.073 91.4656C282.566 91.4656 279.395 90.6732 276.56 89.0884C273.773 87.4557 271.563 85.1986 269.929 82.3172C268.295 79.4359 267.478 76.1223 267.478 72.3766C267.478 68.5828 268.295 65.2692 269.929 62.4359C271.563 59.5545 273.773 57.3215 276.56 55.7367C279.395 54.104 282.566 53.2876 286.073 53.2876C289.389 53.2876 292.368 54.0559 295.01 55.5927C297.701 57.1294 299.815 59.3144 301.353 62.1478C302.938 64.9811 303.731 68.3907 303.731 72.3766C303.731 76.2664 302.962 79.652 301.425 82.5333C299.887 85.4147 297.773 87.6237 295.082 89.1605C292.44 90.6972 289.437 91.4656 286.073 91.4656ZM286.289 88.224C289.172 88.224 291.743 87.5757 294.001 86.2791C296.308 84.9345 298.109 83.0616 299.407 80.6605C300.752 78.2593 301.425 75.498 301.425 72.3766C301.425 69.2071 300.752 66.4458 299.407 64.0927C298.109 61.6915 296.308 59.8427 294.001 58.5461C291.743 57.2014 289.172 56.5291 286.289 56.5291C283.407 56.5291 280.812 57.2014 278.506 58.5461C276.247 59.8427 274.446 61.6915 273.1 64.0927C271.803 66.4458 271.154 69.2071 271.154 72.3766C271.154 75.498 271.803 78.2593 273.1 80.6605C274.446 83.0616 276.247 84.9345 278.506 86.2791C280.812 87.5757 283.407 88.224 286.289 88.224ZM301.497 91.1774V78.8596L302.145 72.3045L301.425 65.7494V37.7283H305.028V91.1774H301.497Z" fill="#228BE6"/>
<path d="M329.735 91.4656C326.612 91.4656 323.681 91.0093 320.942 90.0969C318.252 89.1845 316.162 88.0319 314.672 86.6393L316.33 83.7579C317.771 85.0065 319.693 86.087 322.096 86.9994C324.498 87.8639 327.093 88.2961 329.879 88.2961C333.819 88.2961 336.654 87.6478 338.384 86.3511C340.114 85.0545 340.979 83.3497 340.979 81.2367C340.979 79.7 340.522 78.4994 339.609 77.635C338.744 76.7226 337.567 76.0263 336.078 75.5461C334.588 75.0658 332.955 74.6817 331.177 74.3935C329.399 74.0574 327.621 73.6972 325.843 73.313C324.066 72.9288 322.432 72.3766 320.942 71.6562C319.453 70.9359 318.252 69.9514 317.339 68.7028C316.474 67.4062 316.041 65.7014 316.041 63.5884C316.041 61.6675 316.57 59.9387 317.627 58.402C318.684 56.8653 320.27 55.6407 322.384 54.7283C324.498 53.7678 327.141 53.2876 330.312 53.2876C332.666 53.2876 335.021 53.6237 337.375 54.2961C339.777 54.9684 341.723 55.8568 343.213 56.9613L341.555 59.8427C339.97 58.6421 338.192 57.7777 336.222 57.2494C334.252 56.7212 332.258 56.4571 330.24 56.4571C326.588 56.4571 323.897 57.1294 322.168 58.474C320.486 59.8187 319.645 61.4994 319.645 63.5164C319.645 65.1011 320.078 66.3737 320.942 67.3342C321.855 68.2466 323.057 68.967 324.546 69.4952C326.036 69.9754 327.669 70.3836 329.447 70.7198C331.225 71.0079 333.003 71.3441 334.78 71.7283C336.558 72.1124 338.192 72.6647 339.681 73.385C341.171 74.0574 342.348 75.0178 343.213 76.2664C344.126 77.467 344.582 79.0997 344.582 81.1647C344.582 83.2297 344.006 85.0305 342.853 86.5672C341.747 88.104 340.09 89.3045 337.879 90.1689C335.669 91.0333 332.955 91.4656 329.735 91.4656Z" fill="#228BE6"/>
<path d="M369.342 91.4656C365.738 91.4656 362.519 90.6492 359.684 89.0164C356.898 87.3836 354.663 85.1266 352.982 82.2452C351.348 79.3639 350.531 76.0743 350.531 72.3766C350.531 68.6308 351.348 65.3413 352.982 62.5079C354.663 59.6266 356.898 57.3695 359.684 55.7367C362.519 54.104 365.738 53.2876 369.342 53.2876C372.946 53.2876 376.165 54.104 379 55.7367C381.835 57.3695 384.069 59.6266 385.703 62.5079C387.336 65.3413 388.153 68.6308 388.153 72.3766C388.153 76.0743 387.336 79.3639 385.703 82.2452C384.069 85.1266 381.835 87.3836 379 89.0164C376.165 90.6492 372.946 91.4656 369.342 91.4656ZM369.342 88.224C372.225 88.224 374.82 87.5757 377.126 86.2791C379.432 84.9345 381.234 83.0616 382.531 80.6605C383.829 78.2593 384.477 75.498 384.477 72.3766C384.477 69.2071 383.829 66.4458 382.531 64.0927C381.234 61.6915 379.432 59.8427 377.126 58.5461C374.82 57.2014 372.225 56.5291 369.342 56.5291C366.459 56.5291 363.865 57.2014 361.558 58.5461C359.3 59.8427 357.498 61.6915 356.153 64.0927C354.855 66.4458 354.207 69.2071 354.207 72.3766C354.207 75.498 354.855 78.2593 356.153 80.6605C357.498 83.0616 359.3 84.9345 361.558 86.2791C363.865 87.5757 366.459 88.224 369.342 88.224Z" fill="#228BE6"/>
<path d="M400.054 91.1774V47.813C400.054 44.6915 400.942 42.1944 402.72 40.3215C404.546 38.4006 407.141 37.4401 410.504 37.4401C411.897 37.4401 413.267 37.6562 414.612 38.0884C415.958 38.4726 417.063 39.0729 417.928 39.8893L416.486 42.6266C415.765 41.9062 414.901 41.378 413.891 41.0418C412.882 40.7057 411.801 40.5376 410.648 40.5376C408.342 40.5376 406.588 41.1859 405.387 42.4825C404.186 43.7311 403.585 45.604 403.585 48.1011V54.4401L403.657 56.1689V91.1774H400.054ZM393.135 56.6732V53.5757H415.621V56.6732H393.135Z" fill="#228BE6"/>
<path d="M423.914 91.1774V47.813C423.914 44.6915 424.802 42.1944 426.58 40.3215C428.406 38.4006 431.001 37.4401 434.364 37.4401C435.758 37.4401 437.127 37.6562 438.472 38.0884C439.818 38.4726 440.923 39.0729 441.788 39.8893L440.346 42.6266C439.625 41.9062 438.761 41.378 437.752 41.0418C436.743 40.7057 435.661 40.5376 434.508 40.5376C432.202 40.5376 430.448 41.1859 429.247 42.4825C428.046 43.7311 427.445 45.604 427.445 48.1011V54.4401L427.517 56.1689V91.1774H423.914ZM416.995 56.6732V53.5757H439.481V56.6732H416.995Z" fill="#228BE6"/>
<path d="M456.355 91.4656C453.232 91.4656 450.301 91.0093 447.562 90.0969C444.872 89.1845 442.782 88.0319 441.292 86.6393L442.95 83.7579C444.391 85.0065 446.313 86.087 448.716 86.9994C451.118 87.8639 453.713 88.2961 456.499 88.2961C460.439 88.2961 463.274 87.6478 465.004 86.3511C466.734 85.0545 467.599 83.3497 467.599 81.2367C467.599 79.7 467.142 78.4994 466.229 77.635C465.364 76.7226 464.187 76.0263 462.698 75.5461C461.208 75.0658 459.575 74.6817 457.797 74.3935C456.019 74.0574 454.241 73.6972 452.463 73.313C450.686 72.9288 449.052 72.3766 447.562 71.6562C446.073 70.9359 444.872 69.9514 443.959 68.7028C443.094 67.4062 442.661 65.7014 442.661 63.5884C442.661 61.6675 443.19 59.9387 444.247 58.402C445.304 56.8653 446.89 55.6407 449.004 54.7283C451.118 53.7678 453.761 53.2876 456.932 53.2876C459.286 53.2876 461.641 53.6237 463.995 54.2961C466.397 54.9684 468.343 55.8568 469.833 56.9613L468.175 59.8427C466.59 58.6421 464.812 57.7777 462.842 57.2494C460.872 56.7212 458.878 56.4571 456.86 56.4571C453.208 56.4571 450.517 57.1294 448.788 58.474C447.106 59.8187 446.265 61.4994 446.265 63.5164C446.265 65.1011 446.698 66.3737 447.562 67.3342C448.475 68.2466 449.677 68.967 451.166 69.4952C452.656 69.9754 454.289 70.3836 456.067 70.7198C457.845 71.0079 459.623 71.3441 461.4 71.7283C463.178 72.1124 464.812 72.6647 466.301 73.385C467.791 74.0574 468.968 75.0178 469.833 76.2664C470.746 77.467 471.202 79.0997 471.202 81.1647C471.202 83.2297 470.626 85.0305 469.473 86.5672C468.367 88.104 466.71 89.3045 464.5 90.1689C462.289 91.0333 459.575 91.4656 456.355 91.4656Z" fill="#228BE6"/>
<path d="M492.214 91.4656C488.899 91.4656 486.352 90.5531 484.575 88.7283C482.845 86.9034 481.98 84.4062 481.98 81.2367V45.3639H485.584V80.8766C485.584 83.2777 486.184 85.1266 487.385 86.4232C488.587 87.7198 490.316 88.3681 492.575 88.3681C494.929 88.3681 496.875 87.6718 498.413 86.2791L499.926 88.8003C498.965 89.7127 497.788 90.385 496.395 90.8172C495.049 91.2494 493.656 91.4656 492.214 91.4656ZM475.061 56.6732V53.5757H497.548V56.6732H475.061Z" fill="#228BE6"/>
<path d="M509.976 91.1774V53.5757H513.435V63.8766L513.075 62.724C514.132 59.6986 515.91 57.3695 518.408 55.7367C520.907 54.104 524.03 53.2876 527.778 53.2876V56.8172C527.634 56.8172 527.489 56.8172 527.345 56.8172C527.201 56.7692 527.057 56.7452 526.913 56.7452C522.733 56.7452 519.465 58.0658 517.111 60.7071C514.757 63.3003 513.579 66.926 513.579 71.5842V91.1774H509.976Z" fill="#228BE6"/>
<path d="M558.603 91.1774V82.6054L558.459 81.3088V67.1901C558.459 63.6845 557.498 61.0192 555.576 59.1944C553.703 57.3695 550.94 56.4571 547.288 56.4571C544.693 56.4571 542.267 56.9133 540.009 57.8257C537.798 58.6901 535.901 59.8187 534.315 61.2113L532.513 58.6181C534.387 56.9373 536.645 55.6407 539.288 54.7283C541.931 53.7678 544.693 53.2876 547.576 53.2876C552.237 53.2876 555.817 54.4641 558.315 56.8172C560.814 59.1704 562.063 62.676 562.063 67.3342V91.1774H558.603ZM545.054 91.4656C542.267 91.4656 539.841 91.0333 537.774 90.1689C535.756 89.2565 534.195 87.9839 533.09 86.3511C532.033 84.7184 531.504 82.8455 531.504 80.7325C531.504 78.8116 531.937 77.0828 532.801 75.5461C533.714 73.9613 535.204 72.6887 537.27 71.7283C539.336 70.7198 542.099 70.2155 545.558 70.2155H559.396V73.0249H545.63C541.738 73.0249 539 73.7452 537.414 75.1859C535.877 76.6266 535.108 78.4274 535.108 80.5884C535.108 82.9896 536.021 84.9105 537.847 86.3511C539.672 87.7918 542.243 88.5122 545.558 88.5122C548.73 88.5122 551.396 87.7918 553.558 86.3511C555.769 84.9105 557.402 82.8215 558.459 80.0842L559.468 82.5333C558.459 85.2706 556.73 87.4557 554.279 89.0884C551.877 90.6732 548.802 91.4656 545.054 91.4656Z" fill="#228BE6"/>
<path d="M587.866 91.4656C584.55 91.4656 582.004 90.5531 580.226 88.7283C578.496 86.9034 577.631 84.4062 577.631 81.2367V45.3639H581.235V80.8766C581.235 83.2777 581.836 85.1266 583.037 86.4232C584.238 87.7198 585.968 88.3681 588.226 88.3681C590.58 88.3681 592.526 87.6718 594.064 86.2791L595.577 88.8003C594.616 89.7127 593.439 90.385 592.046 90.8172C590.7 91.2494 589.307 91.4656 587.866 91.4656ZM570.712 56.6732V53.5757H593.199V56.6732H570.712Z" fill="#228BE6"/>
<path d="M619.569 91.4656C615.773 91.4656 612.41 90.6492 609.479 89.0164C606.596 87.3836 604.314 85.1266 602.632 82.2452C600.998 79.3639 600.182 76.0743 600.182 72.3766C600.182 68.6308 600.95 65.3413 602.488 62.5079C604.074 59.6266 606.236 57.3695 608.974 55.7367C611.713 54.104 614.788 53.2876 618.2 53.2876C621.611 53.2876 624.662 54.08 627.353 55.6647C630.092 57.2494 632.23 59.4825 633.768 62.3639C635.353 65.1972 636.146 68.4867 636.146 72.2325C636.146 72.3766 636.122 72.5446 636.074 72.7367C636.074 72.8808 636.074 73.0489 636.074 73.241H602.848V70.4317H634.128L632.686 71.8003C632.734 68.8709 632.11 66.2537 630.813 63.9486C629.563 61.5955 627.858 59.7706 625.695 58.474C623.533 57.1294 621.035 56.4571 618.2 56.4571C615.413 56.4571 612.914 57.1294 610.704 58.474C608.542 59.7706 606.836 61.5955 605.587 63.9486C604.338 66.2537 603.713 68.8949 603.713 71.8723V72.5206C603.713 75.5941 604.386 78.3314 605.731 80.7325C607.125 83.0856 609.023 84.9345 611.425 86.2791C613.827 87.5757 616.566 88.224 619.641 88.224C622.044 88.224 624.278 87.7918 626.344 86.9274C628.458 86.063 630.236 84.7424 631.677 82.9655L633.768 85.3427C632.134 87.3596 630.068 88.8963 627.569 89.9528C625.119 90.9613 622.452 91.4656 619.569 91.4656Z" fill="#228BE6"/>
<path d="M662.934 105.44C659.522 105.44 656.279 104.912 653.204 103.855C650.129 102.799 647.63 101.334 645.708 99.4613L647.654 96.724C649.528 98.4528 651.763 99.7975 654.357 100.758C657 101.718 659.835 102.199 662.862 102.199C667.907 102.199 671.607 101.022 673.961 98.6689C676.363 96.3158 677.565 92.6181 677.565 87.5757V77.1308L678.285 71.5122L677.709 65.8935V53.5757H681.168V87.1435C681.168 93.4345 679.631 98.0446 676.556 100.974C673.529 103.951 668.988 105.44 662.934 105.44ZM661.925 89.8088C658.369 89.8088 655.174 89.0404 652.339 87.5037C649.552 85.9189 647.318 83.7579 645.636 81.0206C644.003 78.2353 643.186 75.0658 643.186 71.5122C643.186 67.9105 644.003 64.741 645.636 62.0037C647.318 59.2664 649.552 57.1294 652.339 55.5927C655.174 54.0559 658.369 53.2876 661.925 53.2876C665.336 53.2876 668.387 54.0319 671.078 55.5206C673.817 56.9613 675.979 59.0503 677.565 61.7876C679.15 64.4768 679.943 67.7184 679.943 71.5122C679.943 75.2579 679.15 78.4994 677.565 81.2367C675.979 83.974 673.817 86.087 671.078 87.5757C668.387 89.0644 665.336 89.8088 661.925 89.8088ZM662.213 86.5672C665.24 86.5672 667.907 85.9429 670.213 84.6944C672.52 83.3978 674.321 81.6209 675.619 79.3639C676.964 77.0588 677.637 74.4415 677.637 71.5122C677.637 68.5348 676.964 65.9175 675.619 63.6605C674.321 61.4034 672.52 59.6506 670.213 58.402C667.907 57.1534 665.24 56.5291 662.213 56.5291C659.282 56.5291 656.64 57.1534 654.285 58.402C651.979 59.6506 650.153 61.4034 648.808 63.6605C647.51 65.9175 646.862 68.5348 646.862 71.5122C646.862 74.4415 647.51 77.0588 648.808 79.3639C650.153 81.6209 651.979 83.3978 654.285 84.6944C656.64 85.9429 659.282 86.5672 662.213 86.5672Z" fill="#228BE6"/>
<path d="M696.422 91.1774V53.5757H700.025V91.1774H696.422ZM698.224 44.4274C697.407 44.4274 696.71 44.1393 696.133 43.563C695.557 42.9867 695.269 42.3144 695.269 41.5461C695.269 40.7297 695.557 40.0333 696.133 39.4571C696.71 38.8808 697.407 38.5927 698.224 38.5927C699.089 38.5927 699.785 38.8808 700.314 39.4571C700.89 39.9853 701.179 40.6576 701.179 41.474C701.179 42.2904 700.89 42.9867 700.314 43.563C699.785 44.1393 699.089 44.4274 698.224 44.4274Z" fill="#228BE6"/>
<path d="M730.494 91.4656C726.698 91.4656 723.334 90.6492 720.403 89.0164C717.521 87.3836 715.238 85.1266 713.557 82.2452C711.923 79.3639 711.106 76.0743 711.106 72.3766C711.106 68.6308 711.875 65.3413 713.412 62.5079C714.998 59.6266 717.16 57.3695 719.899 55.7367C722.638 54.104 725.713 53.2876 729.124 53.2876C732.536 53.2876 735.587 54.08 738.278 55.6647C741.016 57.2494 743.154 59.4825 744.692 62.3639C746.278 65.1972 747.07 68.4867 747.07 72.2325C747.07 72.3766 747.046 72.5446 746.998 72.7367C746.998 72.8808 746.998 73.0489 746.998 73.241H713.773V70.4317H745.052L743.611 71.8003C743.659 68.8709 743.034 66.2537 741.737 63.9486C740.488 61.5955 738.782 59.7706 736.62 58.474C734.458 57.1294 731.959 56.4571 729.124 56.4571C726.337 56.4571 723.839 57.1294 721.629 58.474C719.467 59.7706 717.761 61.5955 716.512 63.9486C715.262 66.2537 714.638 68.8949 714.638 71.8723V72.5206C714.638 75.5941 715.31 78.3314 716.656 80.7325C718.049 83.0856 719.947 84.9345 722.349 86.2791C724.752 87.5757 727.491 88.224 730.566 88.224C732.968 88.224 735.202 87.7918 737.268 86.9274C739.383 86.063 741.16 84.7424 742.602 82.9655L744.692 85.3427C743.058 87.3596 740.992 88.8963 738.494 89.9528C736.043 90.9613 733.377 91.4656 730.494 91.4656Z" fill="#228BE6"/>
<path d="M767.732 91.4656C764.609 91.4656 761.678 91.0093 758.939 90.0969C756.249 89.1845 754.158 88.0319 752.669 86.6393L754.327 83.7579C755.768 85.0065 757.69 86.087 760.092 86.9994C762.495 87.8639 765.089 88.2961 767.876 88.2961C771.816 88.2961 774.651 87.6478 776.381 86.3511C778.111 85.0545 778.976 83.3497 778.976 81.2367C778.976 79.7 778.519 78.4994 777.606 77.635C776.741 76.7226 775.564 76.0263 774.075 75.5461C772.585 75.0658 770.951 74.6817 769.174 74.3935C767.396 74.0574 765.618 73.6972 763.84 73.313C762.062 72.9288 760.429 72.3766 758.939 71.6562C757.45 70.9359 756.249 69.9514 755.336 68.7028C754.471 67.4062 754.038 65.7014 754.038 63.5884C754.038 61.6675 754.567 59.9387 755.624 58.402C756.681 56.8653 758.267 55.6407 760.381 54.7283C762.495 53.7678 765.138 53.2876 768.309 53.2876C770.663 53.2876 773.018 53.6237 775.372 54.2961C777.774 54.9684 779.72 55.8568 781.21 56.9613L779.552 59.8427C777.966 58.6421 776.189 57.7777 774.219 57.2494C772.249 56.7212 770.255 56.4571 768.237 56.4571C764.585 56.4571 761.894 57.1294 760.165 58.474C758.483 59.8187 757.642 61.4994 757.642 63.5164C757.642 65.1011 758.074 66.3737 758.939 67.3342C759.852 68.2466 761.053 68.967 762.543 69.4952C764.032 69.9754 765.666 70.3836 767.444 70.7198C769.222 71.0079 770.999 71.3441 772.777 71.7283C774.555 72.1124 776.189 72.6647 777.678 73.385C779.168 74.0574 780.345 75.0178 781.21 76.2664C782.123 77.467 782.579 79.0997 782.579 81.1647C782.579 83.2297 782.003 85.0305 780.849 86.5672C779.744 88.104 778.087 89.3045 775.876 90.1689C773.666 91.0333 770.951 91.4656 767.732 91.4656Z" fill="#228BE6"/>
</svg>
